<?xml version="1.0" standalone="no"?>
<!DOCTYPE svg PUBLIC "-//W3C//DTD SVG 20010904//EN"
 "http://www.w3.org/TR/2001/REC-SVG-20010904/DTD/svg10.dtd">
<svg version="1.0" xmlns="http://www.w3.org/2000/svg"
 width="512.000000pt" height="512.000000pt" viewBox="0 0 512.000000 512.000000"
 preserveAspectRatio="xMidYMid meet">

<g transform="translate(0.000000,512.000000) scale(0.100000,-0.100000)"
fill="#000000" stroke="none">
<path d="M985 4675 c-194 -43 -364 -163 -464 -329 -18 -31 -47 -95 -65 -143
l-31 -88 0 -1555 c0 -1463 1 -1559 18 -1620 67 -245 259 -436 507 -507 62 -17
141 -18 1610 -18 1462 0 1549 1 1610 18 245 68 431 253 506 502 17 57 19 144
22 1570 2 1106 0 1530 -8 1585 -41 263 -225 479 -485 568 l-80 27 -1540 2
c-1251 1 -1551 -1 -1600 -12z m2139 -482 c19 -158 94 -347 181 -455 54 -67
173 -159 250 -193 71 -32 183 -61 267 -70 l65 -7 7 -91 c3 -49 6 -175 6 -279
0 -153 -3 -190 -14 -194 -20 -8 -224 24 -332 51 -151 38 -353 130 -394 179 -7
9 -16 16 -21 16 -5 0 -9 -245 -9 -559 0 -315 -5 -603 -10 -660 -64 -618 -637
-1042 -1241 -916 -407 85 -732 421 -804 830 -93 534 236 1044 763 1182 79 21
122 26 234 27 75 0 139 -1 141 -4 3 -3 9 -133 13 -290 l7 -285 -130 0 -129 0
-76 -38 c-122 -60 -196 -144 -239 -269 -17 -52 -20 -80 -17 -163 4 -85 9 -110
35 -165 113 -243 402 -340 636 -212 63 34 145 116 180 179 58 108 57 75 57
1311 l0 1132 284 0 284 0 6 -57z"/>
</g>
</svg>
